<mxfile host="app.diagrams.net" agent="Mozilla/5.0 (Windows NT 10.0; Win64; x64; rv:139.0) Gecko/20100101 Firefox/139.0" version="27.0.6" pages="2">
  <diagram id="i7KtP-Vs8fw_sYRqWalm" name="Sequence diagram">
    <mxGraphModel dx="2305" dy="2438" grid="1" gridSize="10" guides="1" tooltips="1" connect="1" arrows="1" fold="1" page="1" pageScale="1" pageWidth="1019" pageHeight="1320" math="0" shadow="0">
      <root>
        <mxCell id="0" />
        <mxCell id="1" parent="0" />
        <mxCell id="BhznW00nb2UTE3ynwCQe-29" value="4." style="shape=umlFrame;whiteSpace=wrap;html=1;fillColor=#f5f5f5;fontColor=#333333;strokeColor=#666666;" parent="1" vertex="1">
          <mxGeometry x="660" y="244" width="180" height="270" as="geometry" />
        </mxCell>
        <mxCell id="XppZFFv2hi1EjOijFOD9-4" value=":Ms Auth" style="shape=umlLifeline;perimeter=lifelinePerimeter;whiteSpace=wrap;html=1;container=1;collapsible=0;recursiveResize=0;outlineConnect=0;fillColor=#ffe6cc;strokeColor=#d79b00;" parent="1" vertex="1">
          <mxGeometry x="566" y="-80" width="130" height="780" as="geometry" />
        </mxCell>
        <mxCell id="XppZFFv2hi1EjOijFOD9-5" value="" style="html=1;points=[];perimeter=orthogonalPerimeter;fillColor=#ffe6cc;strokeColor=#d79b00;" parent="XppZFFv2hi1EjOijFOD9-4" vertex="1">
          <mxGeometry x="60" y="80" width="10" height="600" as="geometry" />
        </mxCell>
        <mxCell id="XppZFFv2hi1EjOijFOD9-6" value="" style="html=1;points=[];perimeter=orthogonalPerimeter;fillColor=#ffe6cc;strokeColor=#d79b00;" parent="XppZFFv2hi1EjOijFOD9-4" vertex="1">
          <mxGeometry x="56" y="170" width="10" height="500" as="geometry" />
        </mxCell>
        <mxCell id="BhznW00nb2UTE3ynwCQe-32" value="[else]" style="text;html=1;align=center;verticalAlign=middle;resizable=0;points=[];autosize=1;strokeColor=none;fillColor=none;" parent="XppZFFv2hi1EjOijFOD9-4" vertex="1">
          <mxGeometry x="110" y="490" width="40" height="20" as="geometry" />
        </mxCell>
        <mxCell id="qBhkvEt52znpNsKGV-zN-3" style="edgeStyle=orthogonalEdgeStyle;rounded=0;orthogonalLoop=1;jettySize=auto;html=1;entryX=0.8;entryY=0.012;entryDx=0;entryDy=0;entryPerimeter=0;" edge="1" parent="XppZFFv2hi1EjOijFOD9-4">
          <mxGeometry relative="1" as="geometry">
            <mxPoint x="287" y="220" as="sourcePoint" />
            <mxPoint x="70" y="242.5999999999999" as="targetPoint" />
            <Array as="points">
              <mxPoint x="118" y="220" />
              <mxPoint x="118" y="243" />
            </Array>
          </mxGeometry>
        </mxCell>
        <mxCell id="qBhkvEt52znpNsKGV-zN-4" value="3:Login Faild()" style="edgeLabel;html=1;align=center;verticalAlign=middle;resizable=0;points=[];" vertex="1" connectable="0" parent="qBhkvEt52znpNsKGV-zN-3">
          <mxGeometry x="-0.7008" relative="1" as="geometry">
            <mxPoint x="-51" y="10" as="offset" />
          </mxGeometry>
        </mxCell>
        <mxCell id="BhznW00nb2UTE3ynwCQe-131" value="3." style="shape=umlFrame;whiteSpace=wrap;html=1;fillColor=#f5f5f5;fontColor=#333333;strokeColor=#666666;" parent="XppZFFv2hi1EjOijFOD9-4" vertex="1">
          <mxGeometry x="110" y="90" width="177" height="160" as="geometry" />
        </mxCell>
        <mxCell id="BhznW00nb2UTE3ynwCQe-132" value="" style="endArrow=none;dashed=1;html=1;rounded=0;entryX=1;entryY=0.576;entryDx=0;entryDy=0;entryPerimeter=0;exitX=0;exitY=0.573;exitDx=0;exitDy=0;exitPerimeter=0;" parent="XppZFFv2hi1EjOijFOD9-4" source="BhznW00nb2UTE3ynwCQe-131" target="BhznW00nb2UTE3ynwCQe-131" edge="1">
          <mxGeometry width="50" height="50" relative="1" as="geometry">
            <mxPoint x="115.75" y="200" as="sourcePoint" />
            <mxPoint x="165.75" y="150" as="targetPoint" />
            <Array as="points" />
          </mxGeometry>
        </mxCell>
        <mxCell id="XppZFFv2hi1EjOijFOD9-13" value="RDS" style="shape=umlLifeline;participant=umlEntity;perimeter=lifelinePerimeter;whiteSpace=wrap;html=1;container=1;collapsible=0;recursiveResize=0;verticalAlign=top;spacingTop=36;outlineConnect=0;fillColor=#e1d5e7;strokeColor=#9673a6;" parent="1" vertex="1">
          <mxGeometry x="758" y="-82.5" width="108" height="782.5" as="geometry" />
        </mxCell>
        <mxCell id="XppZFFv2hi1EjOijFOD9-14" value="" style="html=1;points=[];perimeter=orthogonalPerimeter;fillColor=#e1d5e7;strokeColor=#9673a6;" parent="XppZFFv2hi1EjOijFOD9-13" vertex="1">
          <mxGeometry x="49" y="90" width="10" height="590" as="geometry" />
        </mxCell>
        <mxCell id="BhznW00nb2UTE3ynwCQe-125" value="" style="html=1;points=[];perimeter=orthogonalPerimeter;fillColor=#e1d5e7;strokeColor=#9673a6;" parent="XppZFFv2hi1EjOijFOD9-13" vertex="1">
          <mxGeometry x="54" y="100" width="10" height="130" as="geometry" />
        </mxCell>
        <mxCell id="BhznW00nb2UTE3ynwCQe-144" value="[else]" style="text;html=1;align=center;verticalAlign=middle;resizable=0;points=[];autosize=1;strokeColor=none;fillColor=none;" parent="XppZFFv2hi1EjOijFOD9-13" vertex="1">
          <mxGeometry x="-75" y="190" width="40" height="20" as="geometry" />
        </mxCell>
        <mxCell id="BhznW00nb2UTE3ynwCQe-41" value="" style="html=1;points=[];perimeter=orthogonalPerimeter;fillColor=#e1d5e7;strokeColor=#9673a6;" parent="XppZFFv2hi1EjOijFOD9-13" vertex="1">
          <mxGeometry x="45" y="270" width="10" height="400" as="geometry" />
        </mxCell>
        <mxCell id="BhznW00nb2UTE3ynwCQe-7" value=":Unreal Engine Client" style="shape=umlLifeline;perimeter=lifelinePerimeter;whiteSpace=wrap;html=1;container=1;collapsible=0;recursiveResize=0;outlineConnect=0;fillColor=#ffe6cc;strokeColor=#d79b00;" parent="1" vertex="1">
          <mxGeometry x="165" y="-80" width="100" height="780" as="geometry" />
        </mxCell>
        <mxCell id="BhznW00nb2UTE3ynwCQe-8" value="" style="html=1;points=[];perimeter=orthogonalPerimeter;fillColor=#ffe6cc;strokeColor=#d79b00;" parent="BhznW00nb2UTE3ynwCQe-7" vertex="1">
          <mxGeometry x="45" y="80" width="10" height="680" as="geometry" />
        </mxCell>
        <mxCell id="qBhkvEt52znpNsKGV-zN-36" style="edgeStyle=orthogonalEdgeStyle;rounded=0;orthogonalLoop=1;jettySize=auto;html=1;entryX=1;entryY=0.498;entryDx=0;entryDy=0;entryPerimeter=0;" edge="1" parent="BhznW00nb2UTE3ynwCQe-7">
          <mxGeometry relative="1" as="geometry">
            <mxPoint x="235" y="429.16" as="sourcePoint" />
            <mxPoint x="60" y="388.00000000000017" as="targetPoint" />
            <Array as="points">
              <mxPoint x="148" y="429.16" />
              <mxPoint x="148" y="389.16" />
              <mxPoint x="60" y="389.16" />
            </Array>
          </mxGeometry>
        </mxCell>
        <mxCell id="BhznW00nb2UTE3ynwCQe-14" value="" style="html=1;points=[];perimeter=orthogonalPerimeter;fillColor=#ffe6cc;strokeColor=#d79b00;" parent="1" vertex="1">
          <mxGeometry x="215" y="10" width="10" height="580" as="geometry" />
        </mxCell>
        <mxCell id="BhznW00nb2UTE3ynwCQe-15" style="edgeStyle=orthogonalEdgeStyle;rounded=0;orthogonalLoop=1;jettySize=auto;html=1;entryX=0.435;entryY=0.333;entryDx=0;entryDy=0;entryPerimeter=0;" parent="1" source="BhznW00nb2UTE3ynwCQe-14" target="BhznW00nb2UTE3ynwCQe-119" edge="1">
          <mxGeometry relative="1" as="geometry">
            <Array as="points">
              <mxPoint x="315" y="30" />
              <mxPoint x="315" y="80" />
            </Array>
          </mxGeometry>
        </mxCell>
        <mxCell id="BhznW00nb2UTE3ynwCQe-16" value="&amp;nbsp;1. Peticion de Autenticacion ()" style="edgeLabel;html=1;align=center;verticalAlign=middle;resizable=0;points=[];" parent="BhznW00nb2UTE3ynwCQe-15" vertex="1" connectable="0">
          <mxGeometry x="-0.2787" relative="1" as="geometry">
            <mxPoint as="offset" />
          </mxGeometry>
        </mxCell>
        <mxCell id="BhznW00nb2UTE3ynwCQe-21" style="edgeStyle=orthogonalEdgeStyle;rounded=0;orthogonalLoop=1;jettySize=auto;html=1;" parent="1" target="XppZFFv2hi1EjOijFOD9-13" edge="1">
          <mxGeometry relative="1" as="geometry">
            <mxPoint x="878" y="167.1400000000001" as="targetPoint" />
            <Array as="points">
              <mxPoint x="796" y="159" />
              <mxPoint x="796" y="167" />
            </Array>
            <mxPoint x="730" y="159" as="sourcePoint" />
          </mxGeometry>
        </mxCell>
        <mxCell id="BhznW00nb2UTE3ynwCQe-22" value="4. Verifica Guia completa()" style="edgeLabel;html=1;align=center;verticalAlign=middle;resizable=0;points=[];" parent="BhznW00nb2UTE3ynwCQe-21" vertex="1" connectable="0">
          <mxGeometry x="0.1006" y="-2" relative="1" as="geometry">
            <mxPoint y="-29" as="offset" />
          </mxGeometry>
        </mxCell>
        <mxCell id="BhznW00nb2UTE3ynwCQe-30" value="" style="endArrow=none;dashed=1;html=1;rounded=0;entryX=1;entryY=0.576;entryDx=0;entryDy=0;entryPerimeter=0;exitX=0;exitY=0.573;exitDx=0;exitDy=0;exitPerimeter=0;" parent="1" source="BhznW00nb2UTE3ynwCQe-29" target="BhznW00nb2UTE3ynwCQe-29" edge="1">
          <mxGeometry width="50" height="50" relative="1" as="geometry">
            <mxPoint x="860" y="390" as="sourcePoint" />
            <mxPoint x="910" y="340" as="targetPoint" />
          </mxGeometry>
        </mxCell>
        <mxCell id="BhznW00nb2UTE3ynwCQe-31" value="4: Confimra Token()" style="text;html=1;align=center;verticalAlign=middle;resizable=0;points=[];autosize=1;strokeColor=none;fillColor=none;" parent="1" vertex="1">
          <mxGeometry x="680" y="280" width="130" height="30" as="geometry" />
        </mxCell>
        <mxCell id="BhznW00nb2UTE3ynwCQe-39" style="edgeStyle=orthogonalEdgeStyle;rounded=0;orthogonalLoop=1;jettySize=auto;html=1;entryX=0.933;entryY=0.338;entryDx=0;entryDy=0;entryPerimeter=0;exitX=0.278;exitY=0.726;exitDx=0;exitDy=0;exitPerimeter=0;" parent="1" source="XppZFFv2hi1EjOijFOD9-14" edge="1">
          <mxGeometry relative="1" as="geometry">
            <mxPoint x="780" y="470" as="sourcePoint" />
            <mxPoint x="631.3299999999999" y="460.96000000000004" as="targetPoint" />
            <Array as="points">
              <mxPoint x="815" y="470" />
              <mxPoint x="820" y="470" />
              <mxPoint x="820" y="480" />
              <mxPoint x="696" y="480" />
              <mxPoint x="696" y="460" />
              <mxPoint x="631" y="460" />
            </Array>
          </mxGeometry>
        </mxCell>
        <mxCell id="BhznW00nb2UTE3ynwCQe-40" value="4:Falla Token()" style="edgeLabel;html=1;align=center;verticalAlign=middle;resizable=0;points=[];" parent="BhznW00nb2UTE3ynwCQe-39" vertex="1" connectable="0">
          <mxGeometry x="0.1919" relative="1" as="geometry">
            <mxPoint x="25" y="10" as="offset" />
          </mxGeometry>
        </mxCell>
        <mxCell id="BhznW00nb2UTE3ynwCQe-96" value=":Notificaciones" style="shape=umlLifeline;perimeter=lifelinePerimeter;whiteSpace=wrap;html=1;container=1;collapsible=0;recursiveResize=0;outlineConnect=0;fillColor=#ffe6cc;strokeColor=#d79b00;" parent="1" vertex="1">
          <mxGeometry x="1130" y="-82.5" width="130" height="782.5" as="geometry" />
        </mxCell>
        <mxCell id="BhznW00nb2UTE3ynwCQe-97" value="" style="html=1;points=[];perimeter=orthogonalPerimeter;fillColor=#ffe6cc;strokeColor=#d79b00;" parent="BhznW00nb2UTE3ynwCQe-96" vertex="1">
          <mxGeometry x="60" y="80" width="10" height="600" as="geometry" />
        </mxCell>
        <mxCell id="BhznW00nb2UTE3ynwCQe-118" value=":Api GateWAY" style="shape=umlLifeline;perimeter=lifelinePerimeter;whiteSpace=wrap;html=1;container=1;collapsible=0;recursiveResize=0;outlineConnect=0;fillColor=#d5e8d4;strokeColor=#82b366;" parent="1" vertex="1">
          <mxGeometry x="340" y="-80" width="145" height="780" as="geometry" />
        </mxCell>
        <mxCell id="BhznW00nb2UTE3ynwCQe-119" value="" style="html=1;points=[];perimeter=orthogonalPerimeter;fillColor=#d5e8d4;strokeColor=#82b366;" parent="BhznW00nb2UTE3ynwCQe-118" vertex="1">
          <mxGeometry x="60" y="95" width="10" height="485" as="geometry" />
        </mxCell>
        <mxCell id="BhznW00nb2UTE3ynwCQe-129" style="edgeStyle=orthogonalEdgeStyle;rounded=0;orthogonalLoop=1;jettySize=auto;html=1;" parent="1" source="BhznW00nb2UTE3ynwCQe-119" target="BhznW00nb2UTE3ynwCQe-125" edge="1">
          <mxGeometry relative="1" as="geometry">
            <Array as="points">
              <mxPoint x="613" y="50" />
              <mxPoint x="613" y="43" />
              <mxPoint x="818" y="43" />
              <mxPoint x="818" y="46" />
            </Array>
          </mxGeometry>
        </mxCell>
        <mxCell id="BhznW00nb2UTE3ynwCQe-130" value="2. Post Login()" style="edgeLabel;html=1;align=center;verticalAlign=middle;resizable=0;points=[];" parent="BhznW00nb2UTE3ynwCQe-129" vertex="1" connectable="0">
          <mxGeometry x="0.3662" y="1" relative="1" as="geometry">
            <mxPoint x="-197" y="-12" as="offset" />
          </mxGeometry>
        </mxCell>
        <mxCell id="BhznW00nb2UTE3ynwCQe-138" value="&amp;nbsp;SI Coinciden Creenciales" style="text;html=1;align=center;verticalAlign=middle;resizable=0;points=[];autosize=1;strokeColor=none;fillColor=none;" parent="1" vertex="1">
          <mxGeometry x="685" y="40" width="160" height="30" as="geometry" />
        </mxCell>
        <mxCell id="BhznW00nb2UTE3ynwCQe-139" style="edgeStyle=orthogonalEdgeStyle;rounded=0;orthogonalLoop=1;jettySize=auto;html=1;" parent="1" edge="1">
          <mxGeometry relative="1" as="geometry">
            <Array as="points">
              <mxPoint x="678" y="63" />
              <mxPoint x="678" y="113" />
            </Array>
            <mxPoint x="837" y="63" as="sourcePoint" />
            <mxPoint x="410" y="113" as="targetPoint" />
          </mxGeometry>
        </mxCell>
        <mxCell id="BhznW00nb2UTE3ynwCQe-142" value="Flujo Normal" style="edgeLabel;html=1;align=center;verticalAlign=middle;resizable=0;points=[];" parent="BhznW00nb2UTE3ynwCQe-139" vertex="1" connectable="0">
          <mxGeometry x="-0.5879" relative="1" as="geometry">
            <mxPoint as="offset" />
          </mxGeometry>
        </mxCell>
        <mxCell id="qBhkvEt52znpNsKGV-zN-12" value="3: Login Succes()" style="edgeLabel;html=1;align=center;verticalAlign=middle;resizable=0;points=[];" vertex="1" connectable="0" parent="BhznW00nb2UTE3ynwCQe-139">
          <mxGeometry x="0.543" y="-3" relative="1" as="geometry">
            <mxPoint y="-8" as="offset" />
          </mxGeometry>
        </mxCell>
        <mxCell id="qBhkvEt52znpNsKGV-zN-5" style="edgeStyle=orthogonalEdgeStyle;rounded=0;orthogonalLoop=1;jettySize=auto;html=1;entryX=0.4;entryY=0.379;entryDx=0;entryDy=0;entryPerimeter=0;" edge="1" parent="1" source="XppZFFv2hi1EjOijFOD9-6" target="BhznW00nb2UTE3ynwCQe-119">
          <mxGeometry relative="1" as="geometry">
            <Array as="points">
              <mxPoint x="520" y="160" />
              <mxPoint x="520" y="199" />
            </Array>
          </mxGeometry>
        </mxCell>
        <mxCell id="qBhkvEt52znpNsKGV-zN-9" value="3:Login Faild()" style="edgeLabel;html=1;align=center;verticalAlign=middle;resizable=0;points=[];" vertex="1" connectable="0" parent="qBhkvEt52znpNsKGV-zN-5">
          <mxGeometry x="-0.1105" relative="1" as="geometry">
            <mxPoint y="-10" as="offset" />
          </mxGeometry>
        </mxCell>
        <mxCell id="qBhkvEt52znpNsKGV-zN-10" style="edgeStyle=orthogonalEdgeStyle;rounded=0;orthogonalLoop=1;jettySize=auto;html=1;entryX=1;entryY=0.091;entryDx=0;entryDy=0;entryPerimeter=0;" edge="1" parent="1">
          <mxGeometry relative="1" as="geometry">
            <mxPoint x="400" y="118" as="sourcePoint" />
            <mxPoint x="220" y="110.84000000000015" as="targetPoint" />
            <Array as="points">
              <mxPoint x="310" y="118" />
              <mxPoint x="310" y="111" />
            </Array>
          </mxGeometry>
        </mxCell>
        <mxCell id="qBhkvEt52znpNsKGV-zN-11" style="edgeStyle=orthogonalEdgeStyle;rounded=0;orthogonalLoop=1;jettySize=auto;html=1;" edge="1" parent="1" source="BhznW00nb2UTE3ynwCQe-119" target="BhznW00nb2UTE3ynwCQe-7">
          <mxGeometry relative="1" as="geometry">
            <Array as="points">
              <mxPoint x="333" y="150" />
              <mxPoint x="333" y="180" />
            </Array>
          </mxGeometry>
        </mxCell>
        <mxCell id="qBhkvEt52znpNsKGV-zN-13" value="3: Login Succes()" style="edgeLabel;html=1;align=center;verticalAlign=middle;resizable=0;points=[];" vertex="1" connectable="0" parent="1">
          <mxGeometry x="516" y="150" as="geometry">
            <mxPoint x="-225" y="-48" as="offset" />
          </mxGeometry>
        </mxCell>
        <mxCell id="qBhkvEt52znpNsKGV-zN-14" value="3:Login Faild()" style="edgeLabel;html=1;align=center;verticalAlign=middle;resizable=0;points=[];" vertex="1" connectable="0" parent="1">
          <mxGeometry x="280" y="160" as="geometry" />
        </mxCell>
        <mxCell id="qBhkvEt52znpNsKGV-zN-15" value=":GameLocis Ms" style="shape=umlLifeline;perimeter=lifelinePerimeter;whiteSpace=wrap;html=1;container=1;collapsible=0;recursiveResize=0;outlineConnect=0;fillColor=#ffe6cc;strokeColor=#d79b00;" vertex="1" parent="1">
          <mxGeometry x="930" y="-82.5" width="130" height="792.5" as="geometry" />
        </mxCell>
        <mxCell id="qBhkvEt52znpNsKGV-zN-16" value="" style="html=1;points=[];perimeter=orthogonalPerimeter;fillColor=#ffe6cc;strokeColor=#d79b00;" vertex="1" parent="qBhkvEt52znpNsKGV-zN-15">
          <mxGeometry x="60" y="80" width="10" height="600" as="geometry" />
        </mxCell>
        <mxCell id="qBhkvEt52znpNsKGV-zN-21" style="edgeStyle=orthogonalEdgeStyle;rounded=0;orthogonalLoop=1;jettySize=auto;html=1;entryX=0.2;entryY=0.511;entryDx=0;entryDy=0;entryPerimeter=0;" edge="1" parent="1" source="BhznW00nb2UTE3ynwCQe-14" target="BhznW00nb2UTE3ynwCQe-119">
          <mxGeometry relative="1" as="geometry" />
        </mxCell>
        <mxCell id="qBhkvEt52znpNsKGV-zN-22" value="4: Iniciar Partida()" style="text;html=1;align=center;verticalAlign=middle;resizable=0;points=[];autosize=1;strokeColor=none;fillColor=none;" vertex="1" parent="1">
          <mxGeometry x="240" y="230" width="120" height="30" as="geometry" />
        </mxCell>
        <mxCell id="qBhkvEt52znpNsKGV-zN-23" style="edgeStyle=orthogonalEdgeStyle;rounded=0;orthogonalLoop=1;jettySize=auto;html=1;" edge="1" parent="1" source="BhznW00nb2UTE3ynwCQe-119" target="XppZFFv2hi1EjOijFOD9-13">
          <mxGeometry relative="1" as="geometry">
            <Array as="points">
              <mxPoint x="584" y="258" />
              <mxPoint x="584" y="280" />
            </Array>
          </mxGeometry>
        </mxCell>
        <mxCell id="qBhkvEt52znpNsKGV-zN-25" style="edgeStyle=orthogonalEdgeStyle;rounded=0;orthogonalLoop=1;jettySize=auto;html=1;" edge="1" parent="1" source="BhznW00nb2UTE3ynwCQe-41" target="qBhkvEt52znpNsKGV-zN-15">
          <mxGeometry relative="1" as="geometry">
            <Array as="points">
              <mxPoint x="876" y="290" />
              <mxPoint x="876" y="280" />
            </Array>
          </mxGeometry>
        </mxCell>
        <mxCell id="qBhkvEt52znpNsKGV-zN-26" value="4: Iniica la partida():" style="edgeLabel;html=1;align=center;verticalAlign=middle;resizable=0;points=[];" vertex="1" connectable="0" parent="qBhkvEt52znpNsKGV-zN-25">
          <mxGeometry x="0.2603" y="4" relative="1" as="geometry">
            <mxPoint as="offset" />
          </mxGeometry>
        </mxCell>
        <mxCell id="qBhkvEt52znpNsKGV-zN-27" style="edgeStyle=orthogonalEdgeStyle;rounded=0;orthogonalLoop=1;jettySize=auto;html=1;" edge="1" parent="1" source="qBhkvEt52znpNsKGV-zN-16" target="BhznW00nb2UTE3ynwCQe-96">
          <mxGeometry relative="1" as="geometry">
            <Array as="points">
              <mxPoint x="1120" y="310" />
              <mxPoint x="1120" y="310" />
            </Array>
          </mxGeometry>
        </mxCell>
        <mxCell id="qBhkvEt52znpNsKGV-zN-28" value="4:Notifoca a los juagaores()" style="text;html=1;align=center;verticalAlign=middle;resizable=0;points=[];autosize=1;strokeColor=none;fillColor=none;" vertex="1" parent="1">
          <mxGeometry x="995" y="278" width="170" height="30" as="geometry" />
        </mxCell>
        <mxCell id="qBhkvEt52znpNsKGV-zN-29" style="edgeStyle=orthogonalEdgeStyle;rounded=0;orthogonalLoop=1;jettySize=auto;html=1;entryX=0.531;entryY=0.336;entryDx=0;entryDy=0;entryPerimeter=0;" edge="1" parent="1" source="XppZFFv2hi1EjOijFOD9-6" target="BhznW00nb2UTE3ynwCQe-118">
          <mxGeometry relative="1" as="geometry">
            <Array as="points">
              <mxPoint x="558" y="460" />
              <mxPoint x="558" y="417" />
            </Array>
          </mxGeometry>
        </mxCell>
        <mxCell id="qBhkvEt52znpNsKGV-zN-30" value="4:Falla Inicio()" style="text;html=1;align=center;verticalAlign=middle;resizable=0;points=[];autosize=1;strokeColor=none;fillColor=none;" vertex="1" parent="1">
          <mxGeometry x="440" y="378" width="100" height="30" as="geometry" />
        </mxCell>
        <mxCell id="qBhkvEt52znpNsKGV-zN-31" style="edgeStyle=orthogonalEdgeStyle;rounded=0;orthogonalLoop=1;jettySize=auto;html=1;entryX=0.6;entryY=0.669;entryDx=0;entryDy=0;entryPerimeter=0;" edge="1" parent="1" source="BhznW00nb2UTE3ynwCQe-119" target="BhznW00nb2UTE3ynwCQe-14">
          <mxGeometry relative="1" as="geometry">
            <Array as="points">
              <mxPoint x="313" y="420" />
              <mxPoint x="313" y="398" />
            </Array>
          </mxGeometry>
        </mxCell>
        <mxCell id="qBhkvEt52znpNsKGV-zN-32" value="4:Falla Inicio()" style="text;html=1;align=center;verticalAlign=middle;resizable=0;points=[];autosize=1;strokeColor=none;fillColor=none;" vertex="1" parent="1">
          <mxGeometry x="260" y="430" width="100" height="30" as="geometry" />
        </mxCell>
        <mxCell id="qBhkvEt52znpNsKGV-zN-34" style="edgeStyle=orthogonalEdgeStyle;rounded=0;orthogonalLoop=1;jettySize=auto;html=1;entryX=0.531;entryY=0.275;entryDx=0;entryDy=0;entryPerimeter=0;" edge="1" parent="1" source="qBhkvEt52znpNsKGV-zN-16" target="BhznW00nb2UTE3ynwCQe-118">
          <mxGeometry relative="1" as="geometry">
            <Array as="points">
              <mxPoint x="738" y="350" />
              <mxPoint x="738" y="327" />
            </Array>
          </mxGeometry>
        </mxCell>
        <mxCell id="qBhkvEt52znpNsKGV-zN-35" value="5: Inica Partida()" style="text;html=1;align=center;verticalAlign=middle;resizable=0;points=[];autosize=1;strokeColor=none;fillColor=none;" vertex="1" parent="1">
          <mxGeometry x="835" y="328" width="110" height="30" as="geometry" />
        </mxCell>
        <mxCell id="qBhkvEt52znpNsKGV-zN-37" style="edgeStyle=orthogonalEdgeStyle;rounded=0;orthogonalLoop=1;jettySize=auto;html=1;" edge="1" parent="1" source="XppZFFv2hi1EjOijFOD9-4" target="XppZFFv2hi1EjOijFOD9-4">
          <mxGeometry relative="1" as="geometry" />
        </mxCell>
      </root>
    </mxGraphModel>
  </diagram>
  <diagram id="hbYBUEr95w08JzggDiKY" name="With loop">
    <mxGraphModel dx="1332" dy="983" grid="1" gridSize="10" guides="1" tooltips="1" connect="1" arrows="1" fold="1" page="1" pageScale="1" pageWidth="1019" pageHeight="1320" math="0" shadow="0">
      <root>
        <mxCell id="jC507fco_XKDHWjVbaC3-0" />
        <mxCell id="jC507fco_XKDHWjVbaC3-1" parent="jC507fco_XKDHWjVbaC3-0" />
        <mxCell id="jC507fco_XKDHWjVbaC3-2" value="sd example with a loop" style="shape=umlFrame;whiteSpace=wrap;html=1;width=150;height=30;boundedLbl=1;verticalAlign=middle;align=left;spacingLeft=5;fillColor=#f5f5f5;fontColor=#333333;strokeColor=#666666;" vertex="1" parent="jC507fco_XKDHWjVbaC3-1">
          <mxGeometry x="20" y="30" width="740" height="490" as="geometry" />
        </mxCell>
        <mxCell id="jC507fco_XKDHWjVbaC3-3" value=":Object" style="shape=umlLifeline;perimeter=lifelinePerimeter;whiteSpace=wrap;html=1;container=1;collapsible=0;recursiveResize=0;outlineConnect=0;fillColor=#dae8fc;strokeColor=#6c8ebf;" vertex="1" parent="jC507fco_XKDHWjVbaC3-1">
          <mxGeometry x="320" y="80" width="100" height="400" as="geometry" />
        </mxCell>
        <mxCell id="jC507fco_XKDHWjVbaC3-4" value="" style="html=1;points=[];perimeter=orthogonalPerimeter;" vertex="1" parent="jC507fco_XKDHWjVbaC3-3">
          <mxGeometry x="45" y="80" width="10" height="240" as="geometry" />
        </mxCell>
        <mxCell id="jC507fco_XKDHWjVbaC3-5" value="" style="html=1;points=[];perimeter=orthogonalPerimeter;" vertex="1" parent="jC507fco_XKDHWjVbaC3-3">
          <mxGeometry x="50" y="120" width="10" height="55" as="geometry" />
        </mxCell>
        <mxCell id="jC507fco_XKDHWjVbaC3-6" value="self call" style="edgeStyle=orthogonalEdgeStyle;html=1;align=left;spacingLeft=2;endArrow=block;rounded=0;entryX=1;entryY=0;" edge="1" parent="jC507fco_XKDHWjVbaC3-3" target="jC507fco_XKDHWjVbaC3-5">
          <mxGeometry relative="1" as="geometry">
            <mxPoint x="55" y="105" as="sourcePoint" />
            <Array as="points">
              <mxPoint x="85" y="105" />
            </Array>
          </mxGeometry>
        </mxCell>
        <mxCell id="jC507fco_XKDHWjVbaC3-7" value="" style="shape=umlLifeline;participant=umlActor;perimeter=lifelinePerimeter;whiteSpace=wrap;html=1;container=1;collapsible=0;recursiveResize=0;verticalAlign=top;spacingTop=36;outlineConnect=0;fillColor=#f8cecc;strokeColor=#b85450;" vertex="1" parent="jC507fco_XKDHWjVbaC3-1">
          <mxGeometry x="95" y="80" width="20" height="410" as="geometry" />
        </mxCell>
        <mxCell id="jC507fco_XKDHWjVbaC3-8" value="" style="html=1;points=[];perimeter=orthogonalPerimeter;" vertex="1" parent="jC507fco_XKDHWjVbaC3-7">
          <mxGeometry x="5" y="70" width="10" height="300" as="geometry" />
        </mxCell>
        <mxCell id="jC507fco_XKDHWjVbaC3-9" value="dispatch" style="html=1;verticalAlign=bottom;startArrow=oval;endArrow=block;startSize=8;rounded=0;" edge="1" parent="jC507fco_XKDHWjVbaC3-7" target="jC507fco_XKDHWjVbaC3-8">
          <mxGeometry relative="1" as="geometry">
            <mxPoint x="-55" y="70" as="sourcePoint" />
          </mxGeometry>
        </mxCell>
        <mxCell id="jC507fco_XKDHWjVbaC3-10" value="dispatch" style="html=1;verticalAlign=bottom;endArrow=block;entryX=0;entryY=0;rounded=0;" edge="1" parent="jC507fco_XKDHWjVbaC3-1" source="jC507fco_XKDHWjVbaC3-8" target="jC507fco_XKDHWjVbaC3-4">
          <mxGeometry relative="1" as="geometry">
            <mxPoint x="200" y="160" as="sourcePoint" />
          </mxGeometry>
        </mxCell>
        <mxCell id="jC507fco_XKDHWjVbaC3-11" value="[items=true]" style="edgeLabel;html=1;align=center;verticalAlign=middle;resizable=0;points=[];" vertex="1" connectable="0" parent="jC507fco_XKDHWjVbaC3-10">
          <mxGeometry x="-0.8588" y="2" relative="1" as="geometry">
            <mxPoint x="22" y="-8" as="offset" />
          </mxGeometry>
        </mxCell>
        <mxCell id="jC507fco_XKDHWjVbaC3-12" value="return" style="html=1;verticalAlign=bottom;endArrow=open;dashed=1;endSize=8;exitX=0;exitY=0.95;rounded=0;" edge="1" parent="jC507fco_XKDHWjVbaC3-1" source="jC507fco_XKDHWjVbaC3-4" target="jC507fco_XKDHWjVbaC3-8">
          <mxGeometry relative="1" as="geometry">
            <mxPoint x="200" y="236" as="targetPoint" />
          </mxGeometry>
        </mxCell>
        <mxCell id="jC507fco_XKDHWjVbaC3-13" value=":Object" style="shape=umlLifeline;perimeter=lifelinePerimeter;whiteSpace=wrap;html=1;container=1;collapsible=0;recursiveResize=0;outlineConnect=0;fillColor=#d5e8d4;strokeColor=#82b366;" vertex="1" parent="jC507fco_XKDHWjVbaC3-1">
          <mxGeometry x="490" y="80" width="100" height="400" as="geometry" />
        </mxCell>
        <mxCell id="jC507fco_XKDHWjVbaC3-14" value="" style="html=1;points=[];perimeter=orthogonalPerimeter;" vertex="1" parent="jC507fco_XKDHWjVbaC3-13">
          <mxGeometry x="44" y="200" width="10" height="80" as="geometry" />
        </mxCell>
        <mxCell id="jC507fco_XKDHWjVbaC3-15" value="dispatch" style="html=1;verticalAlign=bottom;endArrow=block;entryX=0;entryY=0;rounded=0;" edge="1" parent="jC507fco_XKDHWjVbaC3-1" source="jC507fco_XKDHWjVbaC3-4" target="jC507fco_XKDHWjVbaC3-14">
          <mxGeometry relative="1" as="geometry">
            <mxPoint x="374" y="280" as="sourcePoint" />
          </mxGeometry>
        </mxCell>
        <mxCell id="jC507fco_XKDHWjVbaC3-16" value="return" style="html=1;verticalAlign=bottom;endArrow=open;dashed=1;endSize=8;exitX=0;exitY=0.95;rounded=0;" edge="1" parent="jC507fco_XKDHWjVbaC3-1" source="jC507fco_XKDHWjVbaC3-14" target="jC507fco_XKDHWjVbaC3-4">
          <mxGeometry relative="1" as="geometry">
            <mxPoint x="680" y="430" as="targetPoint" />
          </mxGeometry>
        </mxCell>
        <mxCell id="jC507fco_XKDHWjVbaC3-17" value="" style="group" vertex="1" connectable="0" parent="jC507fco_XKDHWjVbaC3-1">
          <mxGeometry x="278" y="170" width="334" height="190" as="geometry" />
        </mxCell>
        <mxCell id="jC507fco_XKDHWjVbaC3-18" value="loop" style="shape=umlFrame;whiteSpace=wrap;html=1;fillColor=#ffe6cc;strokeColor=#d79b00;" vertex="1" parent="jC507fco_XKDHWjVbaC3-17">
          <mxGeometry width="334" height="190" as="geometry" />
        </mxCell>
        <mxCell id="jC507fco_XKDHWjVbaC3-19" value="&lt;span style=&quot;font-size: 11px; background-color: rgb(255, 255, 255);&quot;&gt;[items=true]&lt;/span&gt;" style="text;html=1;align=center;verticalAlign=middle;resizable=0;points=[];autosize=1;strokeColor=none;fillColor=none;" vertex="1" parent="jC507fco_XKDHWjVbaC3-17">
          <mxGeometry y="32" width="70" height="20" as="geometry" />
        </mxCell>
        <mxCell id="jC507fco_XKDHWjVbaC3-20" style="rounded=0;orthogonalLoop=1;jettySize=auto;html=1;endArrow=none;endFill=0;dashed=1;fillColor=#ffe6cc;strokeColor=#d79b00;" edge="1" parent="jC507fco_XKDHWjVbaC3-1" source="jC507fco_XKDHWjVbaC3-21" target="jC507fco_XKDHWjVbaC3-18">
          <mxGeometry relative="1" as="geometry" />
        </mxCell>
        <mxCell id="jC507fco_XKDHWjVbaC3-21" value="Only on valid items" style="shape=note2;boundedLbl=1;whiteSpace=wrap;html=1;size=25;verticalAlign=top;align=center;fillColor=#ffe6cc;strokeColor=#d79b00;" vertex="1" parent="jC507fco_XKDHWjVbaC3-1">
          <mxGeometry x="630" y="200" width="120" height="60" as="geometry" />
        </mxCell>
      </root>
    </mxGraphModel>
  </diagram>
</mxfile>
